<?xml version="1.0" standalone="no"?>
<!DOCTYPE svg PUBLIC "-//W3C//DTD SVG 20010904//EN"
 "http://www.w3.org/TR/2001/REC-SVG-20010904/DTD/svg10.dtd">
<svg version="1.0" xmlns="http://www.w3.org/2000/svg"
 width="500.000000pt" height="500.000000pt" viewBox="0 0 500.000000 500.000000"
 preserveAspectRatio="xMidYMid meet">
<metadata>
Created by potrace 1.14, written by Peter Selinger 2001-2017
</metadata>
<g transform="translate(0.000000,500.000000) scale(0.100000,-0.100000)"
fill="#000000" stroke="none">
<path d="M628 4985 c-120 -20 -203 -53 -298 -116 -184 -123 -291 -300 -320
-529 -8 -59 -10 -640 -8 -1895 4 -2031 -2 -1862 78 -2030 97 -201 263 -333
495 -390 l100 -25 1827 0 c1782 0 1829 0 1912 20 46 10 104 27 127 37 132 52
269 166 344 288 50 81 66 120 95 227 20 77 20 100 20 1928 l0 1851 -26 92
c-43 153 -100 252 -201 347 -87 83 -144 119 -255 159 -144 54 -45 51 -2001 50
-1431 -1 -1828 -4 -1889 -14z m3082 -842 c102 -28 95 1 95 -420 0 -202 -3
-366 -6 -363 -3 3 -13 -3 -22 -12 -10 -9 -50 -24 -90 -33 -64 -14 -194 -15
-1159 -13 l-1086 3 -43 30 c-24 17 -57 53 -74 79 l-30 49 -3 251 c-2 155 1
265 7 286 13 44 72 115 115 137 17 9 49 20 71 23 22 3 519 4 1105 2 911 -3
1073 -6 1120 -19z m-755 -1202 l30 -6 0 -388 c0 -336 -2 -388 -15 -392 -8 -2
-321 -5 -695 -7 l-680 -3 -68 32 c-216 103 -302 333 -203 548 42 91 151 184
256 216 30 9 1332 9 1375 0z m-1064 -1103 c160 -79 239 -206 239 -384 0 -146
-55 -257 -173 -347 -112 -85 -298 -103 -427 -41 -167 81 -260 235 -247 413 12
177 114 314 281 378 51 19 76 23 157 20 88 -2 103 -6 170 -39z"/>
<path d="M3785 3735 c0 -200 2 -366 5 -368 3 -3 5 158 5 358 0 200 -2 366 -5
368 -3 3 -5 -158 -5 -358z"/>
</g>
</svg>
